<?xml version="1.0" encoding="UTF-8"?>
<svg xmlns="http://www.w3.org/2000/svg" xmlns:xlink="http://www.w3.org/1999/xlink" width="18px" height="18px" viewBox="0 0 18 18" version="1.1">
<g id="surface1">
<path style=" stroke:none;fill-rule:nonzero;fill:rgb(0%,0%,0%);fill-opacity:1;" d="M 17.984375 9.34375 C 17.972656 9.332031 17.957031 9.332031 17.945312 9.335938 C 17.925781 9.339844 17.914062 9.34375 17.898438 9.347656 L 17.894531 9.351562 C 17.859375 9.359375 17.832031 9.367188 17.800781 9.378906 C 17.347656 9.558594 16.992188 9.867188 16.710938 10.320312 C 16.644531 10.433594 16.589844 10.550781 16.546875 10.667969 C 16.617188 10.277344 16.632812 10.125 16.644531 9.6875 C 16.644531 9.667969 16.644531 9.648438 16.644531 9.628906 C 16.644531 9.578125 16.644531 9.53125 16.65625 9.488281 C 16.671875 9.4375 16.699219 9.386719 16.722656 9.335938 C 16.730469 9.320312 16.738281 9.308594 16.742188 9.292969 C 16.746094 9.292969 16.753906 9.289062 16.753906 9.289062 C 16.882812 9.265625 17 9.210938 17.105469 9.121094 C 17.210938 9.023438 17.300781 8.910156 17.367188 8.777344 C 17.605469 8.296875 17.726562 7.765625 17.722656 7.203125 C 17.722656 7.148438 17.714844 7.09375 17.707031 7.039062 C 17.703125 7.011719 17.703125 6.984375 17.699219 6.957031 C 17.699219 6.941406 17.6875 6.929688 17.675781 6.921875 C 17.660156 6.917969 17.644531 6.917969 17.632812 6.925781 C 17.625 6.929688 17.617188 6.933594 17.609375 6.9375 C 17.597656 6.945312 17.589844 6.949219 17.582031 6.957031 C 17.378906 7.101562 17.199219 7.285156 17.046875 7.496094 C 16.800781 7.84375 16.65625 8.238281 16.617188 8.667969 C 16.613281 8.621094 16.613281 8.574219 16.609375 8.523438 L 16.605469 8.507812 C 16.589844 8.316406 16.574219 8.121094 16.5625 7.929688 C 16.558594 7.882812 16.550781 7.835938 16.542969 7.789062 C 16.523438 7.703125 16.507812 7.617188 16.535156 7.53125 C 16.539062 7.511719 16.542969 7.492188 16.550781 7.472656 C 16.5625 7.421875 16.621094 7.347656 16.714844 7.265625 L 16.71875 7.261719 C 16.753906 7.234375 16.925781 7.074219 17.027344 6.757812 C 17.128906 6.433594 17.121094 6.097656 17.113281 5.851562 L 17.113281 5.847656 C 17.105469 5.507812 17.070312 5.253906 16.996094 5.023438 C 16.984375 4.992188 16.972656 4.964844 16.960938 4.933594 C 16.957031 4.917969 16.949219 4.898438 16.941406 4.882812 C 16.9375 4.867188 16.925781 4.855469 16.910156 4.855469 L 16.902344 4.855469 C 16.890625 4.855469 16.875 4.859375 16.867188 4.871094 L 16.796875 4.957031 C 16.449219 5.378906 16.28125 5.875 16.289062 6.429688 C 16.292969 6.527344 16.300781 6.628906 16.3125 6.730469 C 16.222656 6.425781 16.121094 6.132812 16.003906 5.847656 C 16 5.839844 16 5.832031 16 5.828125 L 16 5.789062 C 15.996094 5.730469 15.996094 5.675781 16 5.617188 C 16 5.605469 16.003906 5.589844 16.019531 5.574219 C 16.035156 5.550781 16.054688 5.527344 16.078125 5.5 C 16.113281 5.460938 16.148438 5.417969 16.179688 5.371094 C 16.273438 5.210938 16.316406 5.027344 16.316406 4.785156 C 16.316406 4.503906 16.273438 4.203125 16.179688 3.847656 C 16.125 3.652344 16.046875 3.398438 15.902344 3.167969 C 15.890625 3.15625 15.878906 3.140625 15.867188 3.125 C 15.863281 3.117188 15.859375 3.109375 15.851562 3.101562 C 15.84375 3.089844 15.832031 3.085938 15.8125 3.085938 C 15.800781 3.085938 15.785156 3.09375 15.777344 3.105469 C 15.59375 3.4375 15.503906 3.792969 15.5 4.191406 C 15.496094 4.519531 15.546875 4.804688 15.613281 5.03125 C 15.445312 4.730469 15.265625 4.4375 15.066406 4.164062 L 15.058594 4.15625 C 15.054688 4.148438 15.054688 4.148438 15.054688 4.148438 C 15.042969 4.058594 15.03125 3.988281 15.027344 3.925781 C 15.027344 3.925781 15.027344 3.921875 15.039062 3.90625 C 15.050781 3.882812 15.066406 3.859375 15.082031 3.835938 C 15.109375 3.789062 15.144531 3.742188 15.164062 3.6875 C 15.222656 3.523438 15.238281 3.339844 15.207031 3.121094 C 15.132812 2.640625 14.921875 2.207031 14.558594 1.796875 C 14.519531 1.757812 14.476562 1.71875 14.433594 1.679688 L 14.421875 1.667969 C 14.40625 1.652344 14.386719 1.636719 14.371094 1.621094 C 14.359375 1.609375 14.34375 1.605469 14.328125 1.609375 C 14.3125 1.617188 14.300781 1.628906 14.296875 1.644531 L 14.289062 1.679688 C 14.285156 1.699219 14.28125 1.71875 14.277344 1.738281 C 14.226562 2.03125 14.230469 2.34375 14.289062 2.695312 C 14.34375 3.042969 14.453125 3.34375 14.625 3.605469 C 14.371094 3.300781 14.121094 3.046875 13.859375 2.824219 C 13.859375 2.824219 13.855469 2.816406 13.855469 2.816406 C 13.878906 2.640625 13.835938 2.476562 13.726562 2.3125 C 13.582031 2.097656 13.382812 1.929688 13.132812 1.824219 C 12.980469 1.757812 12.828125 1.699219 12.675781 1.644531 C 12.601562 1.617188 12.53125 1.589844 12.457031 1.5625 C 12.378906 1.53125 12.347656 1.527344 12.332031 1.542969 C 12.308594 1.5625 12.3125 1.582031 12.324219 1.613281 L 12.328125 1.625 C 12.417969 1.933594 12.539062 2.175781 12.699219 2.371094 C 12.988281 2.726562 13.332031 2.90625 13.738281 2.921875 C 13.753906 2.925781 13.765625 2.929688 13.769531 2.933594 C 13.828125 2.976562 13.871094 3.011719 13.90625 3.042969 C 14.027344 3.152344 14.144531 3.269531 14.257812 3.390625 C 14.085938 3.285156 13.878906 3.234375 13.644531 3.25 C 13.519531 3.253906 13.390625 3.273438 13.269531 3.292969 L 13.261719 3.292969 C 13.226562 3.296875 13.191406 3.304688 13.15625 3.308594 C 13.074219 3.320312 12.996094 3.332031 12.925781 3.34375 C 12.898438 3.351562 12.828125 3.367188 12.8125 3.398438 C 12.808594 3.410156 12.808594 3.421875 12.816406 3.433594 C 12.820312 3.441406 12.828125 3.453125 12.832031 3.460938 C 13.035156 3.722656 13.265625 3.898438 13.539062 3.992188 C 13.875 4.105469 14.179688 4.09375 14.453125 3.960938 C 14.496094 3.9375 14.546875 3.925781 14.605469 3.925781 C 14.648438 3.925781 14.683594 3.933594 14.691406 3.933594 C 14.710938 3.9375 14.730469 3.949219 14.734375 3.953125 C 14.90625 4.179688 15.070312 4.417969 15.21875 4.671875 C 15.09375 4.546875 14.925781 4.460938 14.699219 4.40625 C 14.5 4.359375 14.292969 4.347656 14.097656 4.339844 L 14.03125 4.335938 C 13.96875 4.332031 13.90625 4.328125 13.84375 4.324219 L 13.738281 4.320312 C 13.722656 4.320312 13.710938 4.324219 13.703125 4.335938 C 13.695312 4.347656 13.691406 4.363281 13.695312 4.378906 C 13.703125 4.390625 13.710938 4.410156 13.714844 4.417969 C 13.921875 4.765625 14.164062 5.003906 14.460938 5.152344 C 14.746094 5.296875 15.007812 5.332031 15.269531 5.269531 C 15.300781 5.261719 15.335938 5.261719 15.371094 5.261719 C 15.480469 5.261719 15.558594 5.292969 15.574219 5.324219 C 15.71875 5.621094 15.847656 5.933594 15.960938 6.246094 C 15.84375 6.085938 15.679688 5.957031 15.476562 5.859375 C 15.269531 5.761719 15.058594 5.671875 14.847656 5.585938 C 14.757812 5.550781 14.667969 5.511719 14.578125 5.472656 C 14.5625 5.46875 14.546875 5.46875 14.535156 5.476562 C 14.523438 5.484375 14.515625 5.5 14.515625 5.515625 C 14.515625 5.542969 14.8125 6.371094 15.25 6.699219 C 15.425781 6.832031 15.644531 6.96875 15.917969 6.976562 C 16 6.976562 16.085938 6.988281 16.152344 7.0625 C 16.160156 7.074219 16.175781 7.082031 16.1875 7.089844 C 16.210938 7.097656 16.214844 7.109375 16.226562 7.15625 C 16.316406 7.53125 16.382812 7.914062 16.421875 8.308594 C 16.410156 8.265625 16.394531 8.226562 16.378906 8.1875 C 16.28125 7.941406 16.117188 7.722656 15.863281 7.507812 C 15.734375 7.394531 15.597656 7.285156 15.464844 7.179688 L 15.457031 7.175781 C 15.394531 7.128906 15.335938 7.082031 15.277344 7.03125 C 15.261719 7.023438 15.25 7.011719 15.238281 7 L 15.199219 6.96875 C 15.1875 6.957031 15.167969 6.953125 15.152344 6.960938 C 15.136719 6.972656 15.125 6.988281 15.128906 7.003906 C 15.128906 7.03125 15.132812 7.054688 15.132812 7.082031 L 15.132812 7.089844 C 15.136719 7.140625 15.140625 7.1875 15.144531 7.234375 C 15.191406 7.683594 15.324219 8.058594 15.550781 8.378906 C 15.691406 8.578125 15.894531 8.824219 16.210938 8.9375 C 16.289062 8.964844 16.34375 9.007812 16.402344 9.085938 C 16.457031 9.15625 16.46875 9.222656 16.46875 9.304688 C 16.460938 9.648438 16.4375 9.992188 16.394531 10.328125 C 16.382812 10.234375 16.363281 10.136719 16.328125 10.039062 C 16.261719 9.832031 16.15625 9.628906 16.003906 9.421875 C 15.875 9.246094 15.738281 9.066406 15.609375 8.890625 L 15.601562 8.878906 C 15.546875 8.8125 15.496094 8.742188 15.445312 8.675781 C 15.4375 8.660156 15.421875 8.65625 15.414062 8.652344 C 15.402344 8.648438 15.390625 8.648438 15.378906 8.652344 C 15.367188 8.65625 15.359375 8.667969 15.355469 8.679688 L 15.351562 8.683594 C 15.351562 8.691406 15.347656 8.695312 15.347656 8.699219 C 15.257812 9.238281 15.3125 9.722656 15.515625 10.175781 C 15.617188 10.398438 15.75 10.648438 15.984375 10.828125 C 16.09375 10.910156 16.179688 11.027344 16.226562 11.15625 C 16.234375 11.183594 16.234375 11.195312 16.234375 11.199219 C 16.132812 11.613281 16.003906 12.011719 15.84375 12.386719 C 15.886719 12.1875 15.882812 11.980469 15.835938 11.765625 C 15.769531 11.457031 15.65625 11.160156 15.554688 10.90625 L 15.523438 10.828125 C 15.476562 10.710938 15.429688 10.589844 15.378906 10.464844 C 15.375 10.449219 15.359375 10.4375 15.339844 10.4375 C 15.324219 10.4375 15.308594 10.445312 15.300781 10.460938 L 15.285156 10.492188 C 15.277344 10.503906 15.269531 10.515625 15.265625 10.527344 C 15.0625 10.988281 14.992188 11.460938 15.0625 11.929688 C 15.109375 12.265625 15.191406 12.507812 15.328125 12.710938 C 15.398438 12.816406 15.464844 12.933594 15.476562 13.078125 C 15.480469 13.113281 15.480469 13.136719 15.464844 13.160156 C 15.292969 13.464844 15.101562 13.746094 14.886719 14.011719 C 14.890625 14.011719 14.890625 14.007812 14.890625 14.007812 C 15.042969 13.730469 15.046875 13.429688 15.03125 13.171875 C 15.019531 12.953125 14.992188 12.730469 14.96875 12.519531 L 14.96875 12.507812 C 14.957031 12.421875 14.949219 12.335938 14.9375 12.25 C 14.933594 12.203125 14.929688 12.152344 14.921875 12.105469 L 14.914062 12.039062 C 14.914062 12.023438 14.902344 12.011719 14.890625 12.003906 C 14.867188 11.992188 14.828125 12.011719 14.785156 12.058594 C 14.496094 12.402344 14.320312 12.785156 14.253906 13.207031 C 14.1875 13.640625 14.222656 14.011719 14.367188 14.34375 C 14.371094 14.351562 14.371094 14.371094 14.367188 14.375 L 14.363281 14.566406 C 14.359375 14.578125 14.351562 14.59375 14.347656 14.601562 C 14.058594 14.878906 13.742188 15.117188 13.402344 15.320312 C 13.5625 15.171875 13.679688 14.984375 13.753906 14.742188 C 13.835938 14.476562 13.878906 14.199219 13.921875 13.929688 L 13.925781 13.90625 C 13.9375 13.8125 13.953125 13.71875 13.96875 13.621094 L 13.988281 13.511719 C 13.992188 13.496094 13.984375 13.480469 13.972656 13.46875 C 13.960938 13.460938 13.941406 13.457031 13.929688 13.464844 L 13.914062 13.46875 C 13.894531 13.476562 13.882812 13.484375 13.867188 13.488281 C 13.226562 13.8125 12.800781 14.558594 12.863281 15.269531 C 12.871094 15.382812 12.859375 15.488281 12.832031 15.589844 C 12.828125 15.601562 12.820312 15.609375 12.816406 15.613281 C 12.507812 15.742188 12.21875 15.835938 11.925781 15.898438 C 11.910156 15.902344 11.898438 15.914062 11.894531 15.929688 C 11.890625 15.941406 11.894531 15.957031 11.902344 15.96875 C 11.933594 16.007812 11.960938 16.046875 11.984375 16.089844 C 11.996094 16.109375 12.015625 16.117188 12.035156 16.113281 C 12.269531 16.058594 12.503906 15.988281 12.722656 15.902344 C 12.742188 15.894531 12.753906 15.894531 12.765625 15.894531 C 12.816406 15.902344 12.867188 15.910156 12.925781 15.925781 C 12.9375 15.929688 12.945312 15.933594 12.945312 15.933594 C 13.070312 16.183594 13.285156 16.34375 13.601562 16.417969 C 13.671875 16.4375 13.742188 16.449219 13.816406 16.457031 C 13.890625 16.464844 13.972656 16.46875 14.0625 16.46875 C 14.1875 16.46875 14.273438 16.460938 14.277344 16.460938 C 14.550781 16.429688 14.785156 16.367188 14.996094 16.269531 C 15.078125 16.230469 15.175781 16.175781 15.25 16.082031 C 15.265625 16.0625 15.261719 16.039062 15.246094 16.023438 C 15.035156 15.835938 14.820312 15.699219 14.589844 15.609375 C 14.246094 15.472656 13.933594 15.433594 13.625 15.492188 C 13.582031 15.503906 13.535156 15.515625 13.492188 15.527344 C 13.78125 15.355469 14.054688 15.15625 14.3125 14.925781 C 14.316406 14.921875 14.324219 14.917969 14.332031 14.914062 C 14.375 14.910156 14.429688 14.898438 14.488281 14.894531 C 14.492188 14.894531 14.5 14.898438 14.5 14.898438 C 14.65625 15.074219 14.859375 15.160156 15.117188 15.160156 C 15.128906 15.160156 15.140625 15.15625 15.15625 15.15625 C 15.433594 15.148438 15.714844 15.070312 15.992188 14.929688 C 16.191406 14.824219 16.398438 14.703125 16.570312 14.523438 C 16.605469 14.480469 16.640625 14.4375 16.667969 14.394531 L 16.671875 14.390625 C 16.6875 14.375 16.699219 14.355469 16.710938 14.339844 C 16.71875 14.328125 16.722656 14.316406 16.722656 14.304688 C 16.71875 14.292969 16.710938 14.28125 16.699219 14.273438 C 16.699219 14.273438 16.625 14.234375 16.558594 14.207031 C 16.121094 14.039062 15.679688 14.023438 15.257812 14.15625 C 15.121094 14.203125 14.992188 14.269531 14.863281 14.359375 C 15.097656 14.089844 15.316406 13.792969 15.511719 13.46875 C 15.515625 13.46875 15.519531 13.457031 15.523438 13.457031 C 15.539062 13.445312 15.554688 13.433594 15.574219 13.425781 C 15.605469 13.40625 15.636719 13.386719 15.667969 13.363281 C 15.695312 13.34375 15.703125 13.34375 15.726562 13.363281 C 15.765625 13.386719 15.808594 13.398438 15.84375 13.40625 C 16.0625 13.464844 16.285156 13.4375 16.527344 13.320312 C 16.75 13.214844 16.921875 13.050781 17.074219 12.890625 C 17.296875 12.652344 17.441406 12.4375 17.53125 12.214844 C 17.546875 12.167969 17.5625 12.117188 17.574219 12.070312 C 17.582031 12.046875 17.585938 12.027344 17.59375 12.003906 C 17.601562 11.984375 17.589844 11.960938 17.566406 11.953125 L 17.546875 11.949219 C 17.457031 11.949219 16.652344 11.964844 16.183594 12.417969 C 16.078125 12.519531 15.988281 12.625 15.90625 12.742188 C 16.089844 12.347656 16.25 11.929688 16.375 11.5 L 16.378906 11.492188 C 16.378906 11.488281 16.382812 11.480469 16.382812 11.476562 L 16.507812 11.308594 C 16.511719 11.300781 16.511719 11.300781 16.519531 11.300781 C 16.523438 11.300781 16.523438 11.300781 16.527344 11.300781 L 16.554688 11.304688 C 16.648438 11.308594 16.699219 11.308594 16.746094 11.300781 C 16.921875 11.273438 17.078125 11.1875 17.230469 11.03125 C 17.578125 10.671875 17.820312 10.222656 17.96875 9.660156 C 17.984375 9.597656 17.988281 9.539062 17.992188 9.472656 C 17.996094 9.445312 17.996094 9.414062 18 9.382812 C 18 9.367188 17.996094 9.351562 17.984375 9.34375 Z M 17.984375 9.34375 "/>
<path style=" stroke:none;fill-rule:nonzero;fill:rgb(0%,0%,0%);fill-opacity:1;" d="M 6.074219 15.898438 C 5.78125 15.835938 5.492188 15.742188 5.183594 15.613281 C 5.179688 15.609375 5.171875 15.601562 5.167969 15.589844 C 5.140625 15.488281 5.128906 15.382812 5.136719 15.269531 C 5.199219 14.558594 4.773438 13.8125 4.132812 13.488281 C 4.117188 13.484375 4.105469 13.476562 4.085938 13.46875 L 4.074219 13.464844 C 4.058594 13.457031 4.039062 13.460938 4.027344 13.46875 C 4.015625 13.480469 4.007812 13.496094 4.011719 13.511719 L 4.03125 13.621094 C 4.046875 13.714844 4.0625 13.8125 4.074219 13.90625 L 4.078125 13.929688 C 4.121094 14.199219 4.164062 14.476562 4.246094 14.742188 C 4.320312 14.984375 4.4375 15.171875 4.597656 15.320312 C 4.257812 15.117188 3.941406 14.878906 3.652344 14.601562 C 3.648438 14.59375 3.640625 14.578125 3.640625 14.566406 L 3.632812 14.375 C 3.632812 14.371094 3.628906 14.351562 3.632812 14.34375 C 3.777344 14.011719 3.8125 13.640625 3.746094 13.207031 C 3.679688 12.785156 3.503906 12.402344 3.214844 12.058594 C 3.179688 12.019531 3.148438 12 3.125 12 C 3.121094 12 3.113281 12 3.109375 12.003906 C 3.097656 12.011719 3.085938 12.023438 3.085938 12.039062 L 3.078125 12.105469 C 3.070312 12.152344 3.066406 12.203125 3.0625 12.25 C 3.050781 12.335938 3.042969 12.421875 3.03125 12.503906 L 3.03125 12.519531 C 3.007812 12.730469 2.980469 12.953125 2.96875 13.171875 C 2.953125 13.429688 2.957031 13.730469 3.109375 14.007812 C 3.109375 14.007812 3.109375 14.011719 3.113281 14.011719 C 2.898438 13.746094 2.707031 13.460938 2.535156 13.160156 C 2.519531 13.132812 2.519531 13.109375 2.523438 13.078125 C 2.535156 12.933594 2.601562 12.816406 2.671875 12.710938 C 2.808594 12.507812 2.890625 12.265625 2.9375 11.929688 C 3.007812 11.460938 2.9375 10.988281 2.734375 10.527344 C 2.730469 10.515625 2.722656 10.503906 2.714844 10.492188 L 2.699219 10.460938 C 2.691406 10.445312 2.675781 10.4375 2.660156 10.4375 C 2.640625 10.4375 2.625 10.449219 2.621094 10.464844 C 2.570312 10.589844 2.523438 10.710938 2.476562 10.828125 L 2.445312 10.90625 C 2.34375 11.160156 2.230469 11.457031 2.164062 11.761719 C 2.117188 11.980469 2.113281 12.1875 2.15625 12.386719 C 1.996094 12.011719 1.867188 11.613281 1.765625 11.199219 C 1.765625 11.195312 1.765625 11.183594 1.773438 11.15625 C 1.820312 11.027344 1.90625 10.910156 2.015625 10.828125 C 2.25 10.648438 2.382812 10.398438 2.484375 10.175781 C 2.6875 9.722656 2.742188 9.238281 2.652344 8.699219 C 2.652344 8.695312 2.648438 8.691406 2.648438 8.683594 L 2.644531 8.679688 C 2.640625 8.667969 2.632812 8.65625 2.621094 8.652344 C 2.609375 8.648438 2.59375 8.648438 2.585938 8.652344 C 2.578125 8.65625 2.5625 8.660156 2.554688 8.671875 C 2.503906 8.742188 2.453125 8.8125 2.398438 8.878906 L 2.390625 8.890625 C 2.261719 9.066406 2.125 9.246094 1.996094 9.421875 C 1.84375 9.628906 1.738281 9.832031 1.671875 10.039062 C 1.636719 10.136719 1.617188 10.234375 1.605469 10.328125 C 1.5625 9.992188 1.539062 9.648438 1.53125 9.304688 C 1.53125 9.222656 1.542969 9.15625 1.597656 9.085938 C 1.65625 9.007812 1.710938 8.964844 1.789062 8.9375 C 2.105469 8.820312 2.308594 8.578125 2.449219 8.378906 C 2.675781 8.058594 2.808594 7.683594 2.855469 7.234375 C 2.859375 7.1875 2.863281 7.140625 2.867188 7.089844 L 2.867188 7.082031 C 2.867188 7.054688 2.871094 7.03125 2.871094 7.003906 C 2.875 6.988281 2.863281 6.96875 2.847656 6.960938 C 2.832031 6.953125 2.8125 6.957031 2.800781 6.96875 L 2.761719 7 C 2.75 7.011719 2.738281 7.023438 2.722656 7.03125 C 2.664062 7.082031 2.605469 7.128906 2.542969 7.175781 L 2.535156 7.179688 C 2.40625 7.285156 2.265625 7.394531 2.136719 7.507812 C 1.882812 7.722656 1.71875 7.941406 1.621094 8.1875 C 1.605469 8.226562 1.589844 8.265625 1.578125 8.308594 C 1.617188 7.914062 1.683594 7.527344 1.773438 7.15625 C 1.785156 7.109375 1.789062 7.09375 1.8125 7.089844 C 1.828125 7.082031 1.839844 7.074219 1.847656 7.0625 C 1.914062 6.988281 2 6.976562 2.082031 6.976562 C 2.355469 6.96875 2.574219 6.832031 2.75 6.699219 C 3.1875 6.371094 3.484375 5.542969 3.484375 5.515625 C 3.484375 5.5 3.476562 5.484375 3.464844 5.476562 C 3.453125 5.46875 3.4375 5.46875 3.425781 5.472656 C 3.332031 5.511719 3.242188 5.550781 3.148438 5.589844 C 2.945312 5.671875 2.730469 5.761719 2.527344 5.859375 C 2.320312 5.957031 2.15625 6.085938 2.039062 6.246094 C 2.152344 5.929688 2.28125 5.621094 2.421875 5.324219 C 2.441406 5.292969 2.519531 5.257812 2.628906 5.257812 C 2.664062 5.257812 2.699219 5.261719 2.730469 5.269531 C 2.992188 5.332031 3.253906 5.296875 3.539062 5.152344 C 3.835938 5.003906 4.078125 4.765625 4.285156 4.417969 C 4.292969 4.410156 4.300781 4.390625 4.304688 4.378906 C 4.308594 4.363281 4.304688 4.347656 4.296875 4.335938 C 4.289062 4.324219 4.277344 4.316406 4.261719 4.316406 C 4.257812 4.316406 4.257812 4.316406 4.257812 4.316406 L 4.15625 4.324219 C 4.09375 4.328125 4.03125 4.332031 3.96875 4.335938 L 3.902344 4.339844 C 3.707031 4.347656 3.5 4.359375 3.300781 4.40625 C 3.074219 4.460938 2.90625 4.546875 2.78125 4.671875 C 2.929688 4.417969 3.09375 4.179688 3.265625 3.953125 C 3.269531 3.945312 3.289062 3.9375 3.308594 3.933594 C 3.316406 3.933594 3.351562 3.925781 3.394531 3.925781 C 3.453125 3.925781 3.503906 3.9375 3.546875 3.960938 C 3.820312 4.09375 4.125 4.105469 4.460938 3.992188 C 4.734375 3.898438 4.964844 3.722656 5.167969 3.460938 C 5.171875 3.453125 5.179688 3.441406 5.183594 3.433594 C 5.191406 3.421875 5.191406 3.410156 5.1875 3.398438 C 5.171875 3.363281 5.101562 3.351562 5.074219 3.34375 C 5.003906 3.332031 4.925781 3.316406 4.84375 3.308594 C 4.808594 3.300781 4.773438 3.296875 4.738281 3.292969 L 4.730469 3.292969 C 4.609375 3.273438 4.480469 3.253906 4.355469 3.246094 C 4.121094 3.234375 3.914062 3.285156 3.742188 3.390625 C 3.855469 3.269531 3.972656 3.152344 4.09375 3.042969 C 4.128906 3.007812 4.171875 2.976562 4.230469 2.933594 C 4.234375 2.929688 4.246094 2.925781 4.257812 2.921875 C 4.667969 2.90625 5.011719 2.726562 5.300781 2.371094 C 5.460938 2.175781 5.582031 1.933594 5.671875 1.625 L 5.675781 1.613281 C 5.6875 1.582031 5.691406 1.5625 5.667969 1.542969 C 5.652344 1.527344 5.621094 1.53125 5.542969 1.5625 C 5.46875 1.589844 5.398438 1.617188 5.324219 1.644531 C 5.171875 1.699219 5.019531 1.757812 4.867188 1.824219 C 4.617188 1.929688 4.417969 2.09375 4.273438 2.3125 C 4.164062 2.476562 4.121094 2.640625 4.144531 2.816406 C 4.144531 2.816406 4.140625 2.824219 4.140625 2.824219 C 3.878906 3.046875 3.628906 3.300781 3.375 3.605469 C 3.546875 3.34375 3.65625 3.042969 3.710938 2.695312 C 3.769531 2.34375 3.773438 2.03125 3.722656 1.738281 C 3.71875 1.71875 3.714844 1.699219 3.710938 1.679688 L 3.703125 1.644531 C 3.699219 1.628906 3.6875 1.617188 3.671875 1.609375 C 3.65625 1.605469 3.640625 1.609375 3.628906 1.621094 C 3.613281 1.636719 3.59375 1.652344 3.578125 1.667969 L 3.566406 1.679688 C 3.523438 1.71875 3.480469 1.757812 3.441406 1.796875 C 3.078125 2.207031 2.867188 2.640625 2.792969 3.121094 C 2.761719 3.339844 2.777344 3.523438 2.835938 3.6875 C 2.855469 3.742188 2.890625 3.789062 2.921875 3.839844 C 2.933594 3.859375 2.949219 3.882812 2.960938 3.90625 C 2.972656 3.921875 2.972656 3.925781 2.972656 3.925781 C 2.96875 3.988281 2.957031 4.058594 2.945312 4.144531 C 2.945312 4.148438 2.945312 4.148438 2.9375 4.15625 L 2.933594 4.164062 C 2.738281 4.4375 2.554688 4.730469 2.386719 5.03125 C 2.453125 4.804688 2.503906 4.519531 2.5 4.191406 C 2.496094 3.792969 2.40625 3.4375 2.222656 3.105469 C 2.214844 3.09375 2.199219 3.085938 2.183594 3.085938 C 2.167969 3.085938 2.15625 3.089844 2.148438 3.101562 C 2.140625 3.109375 2.136719 3.117188 2.132812 3.125 C 2.121094 3.140625 2.109375 3.152344 2.097656 3.167969 C 1.953125 3.398438 1.875 3.652344 1.820312 3.847656 C 1.726562 4.203125 1.683594 4.503906 1.683594 4.785156 C 1.683594 5.027344 1.726562 5.210938 1.820312 5.367188 C 1.851562 5.417969 1.886719 5.460938 1.925781 5.503906 C 1.945312 5.527344 1.964844 5.550781 1.980469 5.574219 C 1.996094 5.589844 2 5.605469 2 5.617188 C 2.003906 5.675781 2.003906 5.730469 2 5.789062 L 2 5.828125 C 2 5.832031 2 5.839844 1.996094 5.847656 C 1.878906 6.132812 1.777344 6.425781 1.6875 6.730469 C 1.699219 6.628906 1.707031 6.527344 1.710938 6.429688 C 1.71875 5.875 1.550781 5.378906 1.203125 4.957031 L 1.132812 4.871094 C 1.125 4.859375 1.109375 4.851562 1.097656 4.851562 L 1.089844 4.855469 C 1.074219 4.855469 1.0625 4.867188 1.058594 4.882812 C 1.050781 4.898438 1.042969 4.917969 1.039062 4.933594 C 1.027344 4.964844 1.015625 4.992188 1.003906 5.023438 C 0.929688 5.253906 0.894531 5.507812 0.886719 5.847656 L 0.886719 5.851562 C 0.878906 6.097656 0.871094 6.433594 0.972656 6.757812 C 1.074219 7.074219 1.246094 7.234375 1.28125 7.261719 L 1.285156 7.265625 C 1.378906 7.347656 1.4375 7.421875 1.449219 7.472656 C 1.457031 7.492188 1.460938 7.511719 1.464844 7.53125 C 1.492188 7.617188 1.476562 7.699219 1.457031 7.789062 C 1.449219 7.835938 1.441406 7.882812 1.4375 7.929688 C 1.425781 8.121094 1.410156 8.316406 1.394531 8.507812 L 1.390625 8.523438 C 1.386719 8.570312 1.382812 8.621094 1.378906 8.667969 C 1.34375 8.238281 1.199219 7.84375 0.953125 7.496094 C 0.800781 7.285156 0.621094 7.101562 0.417969 6.957031 C 0.410156 6.949219 0.402344 6.945312 0.390625 6.9375 C 0.382812 6.933594 0.375 6.929688 0.367188 6.925781 C 0.355469 6.917969 0.339844 6.917969 0.324219 6.921875 C 0.3125 6.929688 0.300781 6.941406 0.300781 6.957031 C 0.296875 6.984375 0.296875 7.011719 0.292969 7.039062 C 0.285156 7.09375 0.277344 7.148438 0.277344 7.203125 C 0.273438 7.765625 0.394531 8.296875 0.632812 8.777344 C 0.699219 8.910156 0.789062 9.023438 0.894531 9.121094 C 1 9.210938 1.117188 9.265625 1.246094 9.289062 C 1.246094 9.289062 1.253906 9.292969 1.253906 9.292969 C 1.261719 9.304688 1.269531 9.320312 1.277344 9.335938 C 1.300781 9.382812 1.328125 9.4375 1.34375 9.488281 C 1.351562 9.53125 1.351562 9.578125 1.351562 9.628906 C 1.351562 9.648438 1.351562 9.667969 1.355469 9.6875 C 1.367188 10.125 1.382812 10.277344 1.453125 10.667969 C 1.410156 10.550781 1.355469 10.433594 1.289062 10.320312 C 1.007812 9.867188 0.652344 9.558594 0.199219 9.378906 C 0.167969 9.367188 0.140625 9.359375 0.105469 9.351562 L 0.101562 9.347656 C 0.0859375 9.34375 0.0703125 9.339844 0.0585938 9.335938 C 0.0429688 9.332031 0.0273438 9.332031 0.015625 9.34375 C 0.00390625 9.351562 0 9.367188 0 9.382812 C 0.00390625 9.414062 0.00390625 9.441406 0.0078125 9.472656 C 0.0117188 9.535156 0.015625 9.597656 0.03125 9.660156 C 0.179688 10.222656 0.421875 10.671875 0.769531 11.03125 C 0.921875 11.183594 1.078125 11.273438 1.253906 11.300781 C 1.300781 11.308594 1.351562 11.308594 1.445312 11.304688 L 1.472656 11.300781 C 1.476562 11.300781 1.476562 11.300781 1.480469 11.300781 C 1.488281 11.300781 1.488281 11.300781 1.496094 11.308594 L 1.617188 11.476562 C 1.617188 11.480469 1.621094 11.488281 1.621094 11.492188 L 1.625 11.5 C 1.75 11.929688 1.910156 12.34375 2.09375 12.738281 C 2.011719 12.625 1.917969 12.519531 1.816406 12.417969 C 1.347656 11.960938 0.542969 11.949219 0.453125 11.949219 L 0.433594 11.949219 C 0.410156 11.957031 0.398438 11.984375 0.40625 12.003906 C 0.414062 12.027344 0.417969 12.046875 0.425781 12.070312 C 0.4375 12.117188 0.453125 12.167969 0.46875 12.214844 C 0.558594 12.4375 0.703125 12.652344 0.925781 12.886719 C 1.078125 13.050781 1.25 13.214844 1.472656 13.320312 C 1.714844 13.433594 1.9375 13.464844 2.15625 13.40625 C 2.191406 13.398438 2.234375 13.386719 2.273438 13.359375 C 2.296875 13.34375 2.304688 13.34375 2.332031 13.363281 C 2.363281 13.386719 2.394531 13.40625 2.425781 13.425781 C 2.445312 13.433594 2.460938 13.445312 2.476562 13.457031 C 2.480469 13.457031 2.484375 13.464844 2.488281 13.46875 C 2.683594 13.789062 2.902344 14.089844 3.136719 14.359375 C 3.007812 14.269531 2.878906 14.203125 2.742188 14.15625 C 2.320312 14.023438 1.878906 14.039062 1.4375 14.207031 C 1.375 14.234375 1.300781 14.273438 1.296875 14.273438 C 1.289062 14.28125 1.28125 14.292969 1.277344 14.304688 C 1.277344 14.316406 1.28125 14.328125 1.285156 14.339844 C 1.300781 14.355469 1.3125 14.375 1.328125 14.390625 L 1.328125 14.394531 C 1.359375 14.433594 1.394531 14.480469 1.429688 14.519531 C 1.597656 14.703125 1.808594 14.824219 2.007812 14.929688 C 2.285156 15.070312 2.566406 15.148438 2.84375 15.15625 C 2.859375 15.15625 2.871094 15.15625 2.882812 15.15625 C 3.140625 15.15625 3.34375 15.074219 3.496094 14.898438 C 3.5 14.898438 3.507812 14.894531 3.511719 14.894531 C 3.570312 14.898438 3.625 14.910156 3.667969 14.914062 C 3.675781 14.917969 3.683594 14.921875 3.6875 14.925781 C 3.945312 15.152344 4.21875 15.355469 4.507812 15.527344 C 4.464844 15.511719 4.417969 15.503906 4.371094 15.492188 C 4.066406 15.433594 3.753906 15.472656 3.410156 15.609375 C 3.179688 15.699219 2.964844 15.835938 2.753906 16.023438 C 2.734375 16.039062 2.734375 16.0625 2.75 16.082031 C 2.824219 16.175781 2.921875 16.230469 3.003906 16.269531 C 3.214844 16.367188 3.449219 16.429688 3.722656 16.460938 C 3.726562 16.460938 3.8125 16.464844 3.9375 16.464844 C 4.027344 16.464844 4.109375 16.460938 4.183594 16.453125 C 4.257812 16.449219 4.328125 16.433594 4.394531 16.417969 C 4.714844 16.339844 4.929688 16.183594 5.050781 15.9375 C 5.054688 15.933594 5.0625 15.929688 5.074219 15.925781 C 5.132812 15.910156 5.183594 15.902344 5.234375 15.894531 C 5.246094 15.894531 5.257812 15.894531 5.277344 15.902344 C 5.496094 15.988281 5.726562 16.058594 5.964844 16.113281 C 5.96875 16.113281 5.972656 16.113281 5.976562 16.113281 C 5.992188 16.113281 6.007812 16.105469 6.015625 16.089844 C 6.039062 16.046875 6.066406 16.007812 6.097656 15.96875 C 6.105469 15.957031 6.109375 15.941406 6.105469 15.925781 C 6.101562 15.914062 6.089844 15.902344 6.074219 15.898438 Z M 6.074219 15.898438 "/>
<path style=" stroke:none;fill-rule:nonzero;fill:rgb(0%,0%,0%);fill-opacity:1;" d="M 11.140625 10.078125 L 12.953125 8.308594 C 13.015625 8.25 13.035156 8.160156 13.011719 8.078125 C 12.984375 7.996094 12.914062 7.9375 12.828125 7.925781 L 10.324219 7.5625 L 9.203125 5.289062 C 9.164062 5.214844 9.085938 5.164062 9 5.164062 C 8.914062 5.164062 8.835938 5.214844 8.796875 5.289062 L 7.675781 7.5625 L 5.171875 7.925781 C 5.085938 7.9375 5.015625 7.996094 4.988281 8.078125 C 4.964844 8.160156 4.984375 8.25 5.046875 8.308594 L 6.859375 10.078125 L 6.433594 12.570312 C 6.417969 12.65625 6.453125 12.742188 6.523438 12.792969 C 6.589844 12.84375 6.683594 12.847656 6.757812 12.808594 L 9 11.632812 L 11.242188 12.808594 C 11.273438 12.828125 11.308594 12.835938 11.34375 12.835938 C 11.390625 12.835938 11.4375 12.820312 11.476562 12.792969 C 11.546875 12.742188 11.582031 12.65625 11.566406 12.570312 Z M 11.140625 10.078125 "/>
</g>
</svg>
